<?xml version="1.0" encoding="UTF-8" standalone="no"?>
<!DOCTYPE svg PUBLIC "-//W3C//DTD SVG 1.1//EN" "http://www.w3.org/Graphics/SVG/1.1/DTD/svg11.dtd">
<svg width="100%" height="100%" viewBox="0 0 294 311" version="1.1" xmlns="http://www.w3.org/2000/svg" xmlns:xlink="http://www.w3.org/1999/xlink" xml:space="preserve" xmlns:serif="http://www.serif.com/" style="fill-rule:evenodd;clip-rule:evenodd;">
    <g>
        <g transform="matrix(1.42013,0,0,1.34193,15.2662,13.1793)">
            <g transform="matrix(0.00503275,0,0,0.0072658,2.08397,3.55425)">
                <path d="M0,2116C0,947 947,0 2116,0L33919,0C35088,0 36035,947 36035,2116L36035,26099C36035,27268 35088,28215 33919,28215L2116,28215C947,28215 0,27268 0,26099L0,2116Z" style="stroke:white;stroke-width:1001.53px;"/>
            </g>
            <g transform="matrix(0.00503275,0,0,0.00395313,10.8007,13.3432)">
                <path d="M0,1400C0,627 627,0 1400,0L31002,0C31775,0 32402,627 32402,1400L32402,17266C32402,18039 31775,18666 31002,18666L1400,18666C627,18666 0,18039 0,17266L0,1400Z" style="fill:rgb(229,0,0);"/>
            </g>
            <g transform="matrix(0.0054577,0,0,0.00415216,9.29596,113.567)">
                <g transform="matrix(6266,0,0,6266,2783.5,0)">
                    <path d="M0.371,-0.267C0.368,-0.219 0.377,-0.095 0.3,-0.095C0.204,-0.095 0.199,-0.196 0.199,-0.258L0.199,-0.466C0.199,-0.524 0.19,-0.655 0.3,-0.655C0.369,-0.655 0.364,-0.565 0.37,-0.517L0.508,-0.517C0.509,-0.536 0.507,-0.555 0.505,-0.574C0.495,-0.702 0.425,-0.766 0.3,-0.768C0.076,-0.768 0.061,-0.626 0.055,-0.435L0.055,-0.328C0.055,-0.128 0.07,0.018 0.3,0.018C0.456,0.018 0.502,-0.087 0.509,-0.224C0.51,-0.238 0.511,-0.253 0.512,-0.267L0.371,-0.267Z" style="fill:rgb(229,0,0);fill-rule:nonzero;"/>
                </g>
                <g transform="matrix(6266,0,0,6266,6265.97,0)">
                    <path d="M0.404,-0.239C0.404,-0.167 0.399,-0.095 0.308,-0.095C0.213,-0.095 0.208,-0.167 0.208,-0.239L0.208,-0.75L0.068,-0.75L0.068,-0.227C0.068,-0.061 0.122,0.018 0.307,0.018C0.49,0.018 0.544,-0.061 0.544,-0.227L0.544,-0.75L0.404,-0.75L0.404,-0.239Z" style="fill:rgb(229,0,0);fill-rule:nonzero;"/>
                </g>
                <g transform="matrix(6266,0,0,6266,10093.1,0)">
                    <path d="M0.231,-0.323C0.271,-0.323 0.312,-0.324 0.35,-0.313C0.398,-0.299 0.397,-0.236 0.398,-0.19C0.399,-0.14 0.396,-0.048 0.413,-0L0.567,-0L0.567,-0.014C0.533,-0.036 0.537,-0.22 0.537,-0.251C0.537,-0.323 0.512,-0.376 0.429,-0.387L0.429,-0.389C0.523,-0.402 0.544,-0.488 0.544,-0.57C0.544,-0.708 0.452,-0.75 0.331,-0.75L0.066,-0.75L0.066,-0L0.206,-0L0.206,-0.323L0.231,-0.323ZM0.206,-0.64L0.31,-0.64C0.363,-0.639 0.398,-0.625 0.398,-0.541C0.398,-0.466 0.362,-0.436 0.316,-0.433L0.206,-0.433L0.206,-0.64Z" style="fill:rgb(229,0,0);fill-rule:nonzero;"/>
                </g>
                <g transform="matrix(6266,0,0,6266,13920.2,0)">
                    <path d="M0.231,-0.323C0.271,-0.323 0.312,-0.324 0.35,-0.313C0.398,-0.299 0.397,-0.236 0.398,-0.19C0.399,-0.14 0.396,-0.048 0.413,-0L0.567,-0L0.567,-0.014C0.533,-0.036 0.537,-0.22 0.537,-0.251C0.537,-0.323 0.512,-0.376 0.429,-0.387L0.429,-0.389C0.523,-0.402 0.544,-0.488 0.544,-0.57C0.544,-0.708 0.452,-0.75 0.331,-0.75L0.066,-0.75L0.066,-0L0.206,-0L0.206,-0.323L0.231,-0.323ZM0.206,-0.64L0.31,-0.64C0.363,-0.639 0.398,-0.625 0.398,-0.541C0.398,-0.466 0.362,-0.436 0.316,-0.433L0.206,-0.433L0.206,-0.64Z" style="fill:rgb(229,0,0);fill-rule:nonzero;"/>
                </g>
                <g transform="matrix(6266,0,0,6266,17747.3,0)">
                    <path d="M0.458,-0L0.458,-0.11L0.204,-0.11L0.204,-0.341L0.438,-0.341L0.438,-0.451L0.204,-0.451L0.204,-0.64L0.458,-0.64L0.458,-0.75L0.064,-0.75L0.064,-0L0.458,-0Z" style="fill:rgb(229,0,0);fill-rule:nonzero;"/>
                </g>
                <g transform="matrix(6266,0,0,6266,20878.9,0)">
                    <path d="M0.403,-0.602C0.403,-0.535 0.406,-0.463 0.41,-0.391C0.414,-0.319 0.419,-0.247 0.424,-0.179L0.422,-0.179C0.388,-0.3 0.358,-0.389 0.322,-0.476L0.213,-0.75L0.068,-0.75L0.068,-0L0.208,-0L0.208,-0.141C0.208,-0.201 0.205,-0.276 0.201,-0.35C0.197,-0.426 0.191,-0.502 0.186,-0.564L0.188,-0.564C0.221,-0.446 0.251,-0.355 0.288,-0.267L0.397,-0L0.543,-0L0.543,-0.75L0.403,-0.75L0.403,-0.602Z" style="fill:rgb(229,0,0);fill-rule:nonzero;"/>
                </g>
                <g transform="matrix(6266,0,0,6266,24706,0)">
                    <path d="M0.017,-0.64L0.181,-0.64L0.181,-0L0.321,-0L0.321,-0.64L0.484,-0.64L0.484,-0.75L0.017,-0.75L0.017,-0.64Z" style="fill:rgb(229,0,0);fill-rule:nonzero;"/>
                </g>
                <g transform="matrix(6266,0,0,6266,3651.34,6266)">
                    <path d="M0.307,-0.269C0.299,-0.227 0.294,-0.184 0.29,-0.141C0.288,-0.121 0.284,-0.1 0.284,-0.079L0.282,-0.079C0.282,-0.1 0.278,-0.121 0.276,-0.141C0.272,-0.184 0.267,-0.227 0.259,-0.269L0.171,-0.75L0.021,-0.75L0.187,-0L0.374,-0L0.536,-0.75L0.386,-0.75L0.307,-0.269Z" style="fill:rgb(229,0,0);fill-rule:nonzero;"/>
                </g>
                <g transform="matrix(6266,0,0,6266,7133.81,6266)">
                    <path d="M0.458,-0L0.458,-0.11L0.204,-0.11L0.204,-0.341L0.438,-0.341L0.438,-0.451L0.204,-0.451L0.204,-0.64L0.458,-0.64L0.458,-0.75L0.064,-0.75L0.064,-0L0.458,-0Z" style="fill:rgb(229,0,0);fill-rule:nonzero;"/>
                </g>
                <g transform="matrix(6266,0,0,6266,10265.4,6266)">
                    <path d="M0.231,-0.323C0.271,-0.323 0.312,-0.324 0.35,-0.313C0.398,-0.299 0.397,-0.236 0.398,-0.19C0.399,-0.14 0.396,-0.048 0.413,-0L0.567,-0L0.567,-0.014C0.533,-0.036 0.537,-0.22 0.537,-0.251C0.537,-0.323 0.512,-0.376 0.429,-0.387L0.429,-0.389C0.523,-0.402 0.544,-0.488 0.544,-0.57C0.544,-0.708 0.452,-0.75 0.331,-0.75L0.066,-0.75L0.066,-0L0.206,-0L0.206,-0.323L0.231,-0.323ZM0.206,-0.64L0.31,-0.64C0.363,-0.639 0.398,-0.625 0.398,-0.541C0.398,-0.466 0.362,-0.436 0.316,-0.433L0.206,-0.433L0.206,-0.64Z" style="fill:rgb(229,0,0);fill-rule:nonzero;"/>
                </g>
                <g transform="matrix(6266,0,0,6266,14092.5,6266)">
                    <path d="M0.489,-0.522C0.488,-0.596 0.494,-0.768 0.271,-0.768C0.123,-0.768 0.051,-0.698 0.051,-0.57C0.051,-0.53 0.064,-0.489 0.087,-0.455C0.144,-0.38 0.235,-0.339 0.308,-0.282C0.344,-0.257 0.364,-0.227 0.364,-0.183C0.364,-0.126 0.336,-0.095 0.277,-0.095C0.208,-0.095 0.186,-0.148 0.189,-0.221L0.189,-0.265L0.049,-0.265L0.049,-0.21C0.049,-0.076 0.109,0.018 0.277,0.018C0.414,0.018 0.508,-0.056 0.508,-0.198C0.508,-0.263 0.493,-0.308 0.445,-0.355C0.406,-0.393 0.321,-0.449 0.275,-0.478C0.231,-0.506 0.195,-0.528 0.195,-0.585C0.195,-0.636 0.225,-0.655 0.272,-0.655C0.349,-0.655 0.355,-0.589 0.354,-0.522L0.489,-0.522Z" style="fill:rgb(229,0,0);fill-rule:nonzero;"/>
                </g>
                <g transform="matrix(6266,0,0,6266,17575,6266)">
                    <rect x="0.069" y="-0.75" width="0.14" height="0.75" style="fill:rgb(229,0,0);fill-rule:nonzero;"/>
                </g>
                <g transform="matrix(6266,0,0,6266,19315.5,6266)">
                    <path d="M0.061,-0.328C0.061,-0.128 0.076,0.018 0.306,0.018C0.536,0.018 0.551,-0.128 0.551,-0.328L0.551,-0.435C0.545,-0.626 0.53,-0.768 0.306,-0.768C0.082,-0.768 0.067,-0.626 0.061,-0.435L0.061,-0.328ZM0.205,-0.466C0.205,-0.524 0.196,-0.655 0.306,-0.655C0.41,-0.655 0.407,-0.522 0.407,-0.462L0.407,-0.27C0.407,-0.198 0.406,-0.095 0.306,-0.095C0.21,-0.095 0.205,-0.196 0.205,-0.258L0.205,-0.466Z" style="fill:rgb(229,0,0);fill-rule:nonzero;"/>
                </g>
                <g transform="matrix(6266,0,0,6266,23142.6,6266)">
                    <path d="M0.403,-0.602C0.403,-0.535 0.406,-0.463 0.41,-0.391C0.414,-0.319 0.419,-0.247 0.424,-0.179L0.422,-0.179C0.388,-0.3 0.358,-0.389 0.322,-0.476L0.213,-0.75L0.068,-0.75L0.068,-0L0.208,-0L0.208,-0.141C0.208,-0.201 0.205,-0.276 0.201,-0.35C0.197,-0.426 0.191,-0.502 0.186,-0.564L0.188,-0.564C0.221,-0.446 0.251,-0.355 0.288,-0.267L0.397,-0L0.543,-0L0.543,-0.75L0.403,-0.75L0.403,-0.602Z" style="fill:rgb(229,0,0);fill-rule:nonzero;"/>
                </g>
            </g>
            <g transform="matrix(0.00303141,0,0,0.00415216,17.5283,77.6036)">
                <g transform="matrix(16848,0,0,16848,0,0)">
                    <path d="M0.432,-0.8L0.432,-0L0.145,-0L0.145,-0.487L0.048,-0.487L0.048,-0.658C0.098,-0.693 0.13,-0.741 0.145,-0.8L0.432,-0.8Z" style="fill-rule:nonzero;"/>
                </g>
                <g transform="matrix(16848,0,0,16848,8115.15,0)">
                    <rect x="0.048" y="-0.214" width="0.215" height="0.214" style="fill-rule:nonzero;"/>
                </g>
                <g transform="matrix(16848,0,0,16848,13399.8,0)">
                    <path d="M0.449,-0.002L0.447,-0.002C0.382,-0.002 0.323,-0.013 0.27,-0.035C0.217,-0.058 0.175,-0.088 0.142,-0.126C0.11,-0.163 0.085,-0.205 0.068,-0.252C0.051,-0.299 0.042,-0.347 0.042,-0.398C0.042,-0.449 0.051,-0.498 0.068,-0.545C0.085,-0.592 0.111,-0.635 0.143,-0.674C0.177,-0.713 0.219,-0.744 0.272,-0.767C0.325,-0.79 0.384,-0.801 0.449,-0.802L0.452,-0.802C0.519,-0.802 0.579,-0.791 0.632,-0.769C0.686,-0.746 0.73,-0.716 0.763,-0.679C0.796,-0.642 0.822,-0.6 0.839,-0.553C0.856,-0.506 0.865,-0.458 0.865,-0.407C0.865,-0.356 0.856,-0.306 0.838,-0.259C0.82,-0.212 0.794,-0.169 0.76,-0.131C0.727,-0.092 0.683,-0.061 0.629,-0.038C0.575,-0.015 0.515,-0.003 0.449,-0.002ZM0.375,-0.498C0.315,-0.453 0.285,-0.408 0.285,-0.364C0.285,-0.34 0.294,-0.317 0.311,-0.295C0.336,-0.267 0.367,-0.253 0.402,-0.253C0.443,-0.253 0.486,-0.271 0.531,-0.307C0.589,-0.35 0.618,-0.393 0.618,-0.436C0.618,-0.461 0.609,-0.484 0.59,-0.507C0.565,-0.538 0.535,-0.554 0.501,-0.554C0.466,-0.554 0.424,-0.535 0.375,-0.498Z" style="fill-rule:nonzero;"/>
                </g>
                <g transform="matrix(16848,0,0,16848,28709.1,0)">
                    <rect x="0.048" y="-0.214" width="0.215" height="0.214" style="fill-rule:nonzero;"/>
                </g>
                <g transform="matrix(16848,0,0,16848,33993.8,0)">
                    <path d="M0.449,-0.002L0.447,-0.002C0.382,-0.002 0.323,-0.013 0.27,-0.035C0.217,-0.058 0.175,-0.088 0.142,-0.126C0.11,-0.163 0.085,-0.205 0.068,-0.252C0.051,-0.299 0.042,-0.347 0.042,-0.398C0.042,-0.449 0.051,-0.498 0.068,-0.545C0.085,-0.592 0.111,-0.635 0.143,-0.674C0.177,-0.713 0.219,-0.744 0.272,-0.767C0.325,-0.79 0.384,-0.801 0.449,-0.802L0.452,-0.802C0.519,-0.802 0.579,-0.791 0.632,-0.769C0.686,-0.746 0.73,-0.716 0.763,-0.679C0.796,-0.642 0.822,-0.6 0.839,-0.553C0.856,-0.506 0.865,-0.458 0.865,-0.407C0.865,-0.356 0.856,-0.306 0.838,-0.259C0.82,-0.212 0.794,-0.169 0.76,-0.131C0.727,-0.092 0.683,-0.061 0.629,-0.038C0.575,-0.015 0.515,-0.003 0.449,-0.002ZM0.375,-0.498C0.315,-0.453 0.285,-0.408 0.285,-0.364C0.285,-0.34 0.294,-0.317 0.311,-0.295C0.336,-0.267 0.367,-0.253 0.402,-0.253C0.443,-0.253 0.486,-0.271 0.531,-0.307C0.589,-0.35 0.618,-0.393 0.618,-0.436C0.618,-0.461 0.609,-0.484 0.59,-0.507C0.565,-0.538 0.535,-0.554 0.501,-0.554C0.466,-0.554 0.424,-0.535 0.375,-0.498Z" style="fill-rule:nonzero;"/>
                </g>
            </g>
        </g>
        <g transform="matrix(0.36949,0,0,0.368936,-121.147,-85.7721)">
            <g transform="matrix(0.788408,0,0,1,90.5372,0)">
                <path d="M468.811,956.373C494.333,956.373 505.689,943.106 505.689,914.886L505.689,909.152C505.689,880.932 494.333,867.665 468.811,867.665C443.289,867.665 431.934,880.932 431.934,909.152L431.934,914.886C431.934,943.106 443.289,956.373 468.811,956.373ZM468.811,932.987C462.74,932.987 460.154,926.691 460.154,913.424L460.154,910.726C460.154,897.346 462.74,891.05 468.811,891.05C474.882,891.05 477.581,897.346 477.581,910.726L477.581,913.424C477.581,926.691 474.882,932.987 468.811,932.987Z" style="fill:none;fill-rule:nonzero;stroke:black;stroke-width:21.28px;stroke-linecap:square;stroke-miterlimit:2;"/>
                <path d="M585.964,918.596L575.396,918.596L575.396,869.351L549.761,869.351L512.547,918.259L522.103,938.721L551.56,938.721L551.56,953.674L575.396,953.674L575.396,938.721L585.964,938.721L585.964,918.596ZM539.081,918.596L551.56,902.181L551.56,918.596L539.081,918.596Z" style="fill:none;fill-rule:nonzero;stroke:black;stroke-width:21.28px;stroke-linecap:square;stroke-miterlimit:2;"/>
                <path d="M616.658,869.351L594.734,953.674L618.007,953.674L639.931,869.351L616.658,869.351Z" style="fill:none;fill-rule:nonzero;stroke:black;stroke-width:21.28px;stroke-linecap:square;stroke-miterlimit:2;"/>
                <path d="M683.554,956.373C709.076,956.373 720.432,943.106 720.432,914.886L720.432,909.152C720.432,880.932 709.076,867.665 683.554,867.665C658.032,867.665 646.677,880.932 646.677,909.152L646.677,914.886C646.677,943.106 658.032,956.373 683.554,956.373ZM683.554,932.987C677.483,932.987 674.897,926.691 674.897,913.424L674.897,910.726C674.897,897.346 677.483,891.05 683.554,891.05C689.625,891.05 692.324,897.346 692.324,910.726L692.324,913.424C692.324,926.691 689.625,932.987 683.554,932.987Z" style="fill:none;fill-rule:nonzero;stroke:black;stroke-width:21.28px;stroke-linecap:square;stroke-miterlimit:2;"/>
                <path d="M753.486,869.351L728.527,883.405L740.782,905.104L753.486,898.021L753.486,953.674L781.931,953.674L781.931,869.351L753.486,869.351Z" style="fill:none;fill-rule:nonzero;stroke:black;stroke-width:21.28px;stroke-linecap:square;stroke-miterlimit:2;"/>
                <path d="M831.401,869.351L809.477,953.674L832.75,953.674L854.674,869.351L831.401,869.351Z" style="fill:none;fill-rule:nonzero;stroke:black;stroke-width:21.28px;stroke-linecap:square;stroke-miterlimit:2;"/>
                <path d="M900.658,931.413C908.753,927.141 918.872,920.057 924.156,914.998C939.222,900.157 931.689,871.038 906.392,868.002C889.64,865.978 877.273,869.576 863.219,876.322L875.136,897.459C882.444,893.749 889.865,890.938 896.948,890.938C904.256,890.938 908.304,898.808 901.445,906.004C887.054,921.182 863.781,937.035 863.781,937.035L871.539,953.674L933.6,953.674L933.6,931.413L900.658,931.413Z" style="fill:none;fill-rule:nonzero;stroke:black;stroke-width:21.28px;stroke-linecap:square;stroke-miterlimit:2;"/>
                <path d="M980.372,956.373C1005.89,956.373 1017.25,943.106 1017.25,914.886L1017.25,909.152C1017.25,880.932 1005.89,867.665 980.372,867.665C954.85,867.665 943.494,880.932 943.494,909.152L943.494,914.886C943.494,943.106 954.85,956.373 980.372,956.373ZM980.372,932.987C974.3,932.987 971.715,926.691 971.715,913.424L971.715,910.726C971.715,897.346 974.3,891.05 980.372,891.05C986.443,891.05 989.141,897.346 989.141,910.726L989.141,913.424C989.141,926.691 986.443,932.987 980.372,932.987Z" style="fill:none;fill-rule:nonzero;stroke:black;stroke-width:21.28px;stroke-linecap:square;stroke-miterlimit:2;"/>
                <path d="M1064.81,931.413C1072.9,927.141 1083.02,920.057 1088.31,914.998C1103.37,900.157 1095.84,871.038 1070.54,868.002C1053.79,865.978 1041.42,869.576 1027.37,876.322L1039.29,897.459C1046.59,893.749 1054.01,890.938 1061.1,890.938C1068.4,890.938 1072.45,898.808 1065.59,906.004C1051.2,921.182 1027.93,937.035 1027.93,937.035L1035.69,953.674L1097.75,953.674L1097.75,931.413L1064.81,931.413Z" style="fill:none;fill-rule:nonzero;stroke:black;stroke-width:21.28px;stroke-linecap:square;stroke-miterlimit:2;"/>
                <path d="M1146.32,890.263C1154.08,888.914 1160.82,890.938 1164.53,894.086L1179.04,879.47C1171.73,872.274 1158.69,868.339 1149.47,868.339C1122.37,868.339 1109.11,887.228 1109.11,915.335C1109.11,943.443 1120.46,956.598 1145.87,956.598C1168.13,956.598 1179.94,944.23 1179.94,926.916C1179.94,905.779 1154.98,894.086 1135.08,900.832C1135.08,896.447 1139.91,891.275 1146.32,890.263ZM1145.53,936.135C1138,936.135 1134.96,931.525 1134.96,927.59C1134.96,923.655 1138,919.158 1145.53,919.158C1153.07,919.158 1156.21,923.655 1156.21,927.59C1156.21,931.525 1153.07,936.135 1145.53,936.135Z" style="fill:none;fill-rule:nonzero;stroke:black;stroke-width:21.28px;stroke-linecap:square;stroke-miterlimit:2;"/>
            </g>
            <g transform="matrix(0.788408,0,0,1,90.5372,0)">
                <g transform="matrix(112.431,0,0,112.431,427.886,953.674)">
                    <path d="M0.364,0.024C0.591,0.024 0.692,-0.094 0.692,-0.345L0.692,-0.396C0.692,-0.647 0.591,-0.765 0.364,-0.765C0.137,-0.765 0.036,-0.647 0.036,-0.396L0.036,-0.345C0.036,-0.094 0.137,0.024 0.364,0.024ZM0.364,-0.184C0.31,-0.184 0.287,-0.24 0.287,-0.358L0.287,-0.382C0.287,-0.501 0.31,-0.557 0.364,-0.557C0.418,-0.557 0.442,-0.501 0.442,-0.382L0.442,-0.358C0.442,-0.24 0.418,-0.184 0.364,-0.184Z" style="fill:white;fill-rule:nonzero;"/>
                </g>
                <g transform="matrix(112.431,0,0,112.431,509.961,953.674)">
                    <path d="M0.676,-0.312L0.582,-0.312L0.582,-0.75L0.354,-0.75L0.023,-0.315L0.108,-0.133L0.37,-0.133L0.37,-0L0.582,-0L0.582,-0.133L0.676,-0.133L0.676,-0.312ZM0.259,-0.312L0.37,-0.458L0.37,-0.312L0.259,-0.312Z" style="fill:white;fill-rule:nonzero;"/>
                </g>
                <g transform="matrix(112.431,0,0,112.431,592.035,953.674)">
                    <path d="M0.219,-0.75L0.024,-0L0.231,-0L0.426,-0.75L0.219,-0.75Z" style="fill:white;fill-rule:nonzero;"/>
                </g>
                <g transform="matrix(112.431,0,0,112.431,642.629,953.674)">
                    <path d="M0.364,0.024C0.591,0.024 0.692,-0.094 0.692,-0.345L0.692,-0.396C0.692,-0.647 0.591,-0.765 0.364,-0.765C0.137,-0.765 0.036,-0.647 0.036,-0.396L0.036,-0.345C0.036,-0.094 0.137,0.024 0.364,0.024ZM0.364,-0.184C0.31,-0.184 0.287,-0.24 0.287,-0.358L0.287,-0.382C0.287,-0.501 0.31,-0.557 0.364,-0.557C0.418,-0.557 0.442,-0.501 0.442,-0.382L0.442,-0.358C0.442,-0.24 0.418,-0.184 0.364,-0.184Z" style="fill:white;fill-rule:nonzero;"/>
                </g>
                <g transform="matrix(112.431,0,0,112.431,724.704,953.674)">
                    <path d="M0.256,-0.75L0.034,-0.625L0.143,-0.432L0.256,-0.495L0.256,-0L0.509,-0L0.509,-0.75L0.256,-0.75Z" style="fill:white;fill-rule:nonzero;"/>
                </g>
                <g transform="matrix(112.431,0,0,112.431,806.778,953.674)">
                    <path d="M0.219,-0.75L0.024,-0L0.231,-0L0.426,-0.75L0.219,-0.75Z" style="fill:white;fill-rule:nonzero;"/>
                </g>
                <g transform="matrix(112.431,0,0,112.431,857.372,953.674)">
                    <path d="M0.385,-0.198C0.457,-0.236 0.547,-0.299 0.594,-0.344C0.728,-0.476 0.661,-0.735 0.436,-0.762C0.287,-0.78 0.177,-0.748 0.052,-0.688L0.158,-0.5C0.223,-0.533 0.289,-0.558 0.352,-0.558C0.417,-0.558 0.453,-0.488 0.392,-0.424C0.264,-0.289 0.057,-0.148 0.057,-0.148L0.126,-0L0.678,-0L0.678,-0.198L0.385,-0.198Z" style="fill:white;fill-rule:nonzero;"/>
                </g>
                <g transform="matrix(112.431,0,0,112.431,939.447,953.674)">
                    <path d="M0.364,0.024C0.591,0.024 0.692,-0.094 0.692,-0.345L0.692,-0.396C0.692,-0.647 0.591,-0.765 0.364,-0.765C0.137,-0.765 0.036,-0.647 0.036,-0.396L0.036,-0.345C0.036,-0.094 0.137,0.024 0.364,0.024ZM0.364,-0.184C0.31,-0.184 0.287,-0.24 0.287,-0.358L0.287,-0.382C0.287,-0.501 0.31,-0.557 0.364,-0.557C0.418,-0.557 0.442,-0.501 0.442,-0.382L0.442,-0.358C0.442,-0.24 0.418,-0.184 0.364,-0.184Z" style="fill:white;fill-rule:nonzero;"/>
                </g>
                <g transform="matrix(112.431,0,0,112.431,1021.52,953.674)">
                    <path d="M0.385,-0.198C0.457,-0.236 0.547,-0.299 0.594,-0.344C0.728,-0.476 0.661,-0.735 0.436,-0.762C0.287,-0.78 0.177,-0.748 0.052,-0.688L0.158,-0.5C0.223,-0.533 0.289,-0.558 0.352,-0.558C0.417,-0.558 0.453,-0.488 0.392,-0.424C0.264,-0.289 0.057,-0.148 0.057,-0.148L0.126,-0L0.678,-0L0.678,-0.198L0.385,-0.198Z" style="fill:white;fill-rule:nonzero;"/>
                </g>
                <g transform="matrix(112.431,0,0,112.431,1103.6,953.674)">
                    <path d="M0.38,-0.564C0.449,-0.576 0.509,-0.558 0.542,-0.53L0.671,-0.66C0.606,-0.724 0.49,-0.759 0.408,-0.759C0.167,-0.759 0.049,-0.591 0.049,-0.341C0.049,-0.091 0.15,0.026 0.376,0.026C0.574,0.026 0.679,-0.084 0.679,-0.238C0.679,-0.426 0.457,-0.53 0.28,-0.47C0.28,-0.509 0.323,-0.555 0.38,-0.564ZM0.373,-0.156C0.306,-0.156 0.279,-0.197 0.279,-0.232C0.279,-0.267 0.306,-0.307 0.373,-0.307C0.44,-0.307 0.468,-0.267 0.468,-0.232C0.468,-0.197 0.44,-0.156 0.373,-0.156Z" style="fill:white;fill-rule:nonzero;"/>
                </g>
            </g>
        </g>
    </g>
</svg>
